<mxfile host="app.diagrams.net" modified="2021-12-14T22:09:00.974Z" agent="5.0 (X11)" etag="Y0ilkMfmvzrB_YM1qdp5" version="15.9.6" type="github">
  <diagram id="2Hr0BJaucBvG9kBsFHU5" name="Page-1">
    <mxGraphModel dx="1354" dy="793" grid="1" gridSize="10" guides="1" tooltips="1" connect="1" arrows="1" fold="1" page="1" pageScale="1" pageWidth="827" pageHeight="1169" math="0" shadow="0">
      <root>
        <mxCell id="0" />
        <mxCell id="1" parent="0" />
        <mxCell id="vDEONGkRwF2Hb5dZAq_u-78" style="edgeStyle=orthogonalEdgeStyle;rounded=0;orthogonalLoop=1;jettySize=auto;html=1;exitX=0.5;exitY=1;exitDx=0;exitDy=0;entryX=0.5;entryY=0;entryDx=0;entryDy=0;" edge="1" parent="1" source="vDEONGkRwF2Hb5dZAq_u-1" target="vDEONGkRwF2Hb5dZAq_u-6">
          <mxGeometry relative="1" as="geometry" />
        </mxCell>
        <mxCell id="vDEONGkRwF2Hb5dZAq_u-1" value="&lt;font style=&quot;font-size: 10px&quot;&gt;time_create&lt;/font&gt;" style="rounded=0;whiteSpace=wrap;html=1;" vertex="1" parent="1">
          <mxGeometry x="490" y="200" width="100" height="20" as="geometry" />
        </mxCell>
        <mxCell id="vDEONGkRwF2Hb5dZAq_u-2" value="" style="endArrow=classic;html=1;rounded=0;entryX=1;entryY=1;entryDx=0;entryDy=0;" edge="1" parent="1" target="vDEONGkRwF2Hb5dZAq_u-3">
          <mxGeometry width="50" height="50" relative="1" as="geometry">
            <mxPoint x="100" y="130" as="sourcePoint" />
            <mxPoint x="100" y="570" as="targetPoint" />
          </mxGeometry>
        </mxCell>
        <mxCell id="vDEONGkRwF2Hb5dZAq_u-3" value="t" style="text;html=1;strokeColor=none;fillColor=none;align=center;verticalAlign=middle;whiteSpace=wrap;rounded=0;" vertex="1" parent="1">
          <mxGeometry x="40" y="640" width="60" height="80" as="geometry" />
        </mxCell>
        <mxCell id="vDEONGkRwF2Hb5dZAq_u-4" style="edgeStyle=orthogonalEdgeStyle;rounded=0;orthogonalLoop=1;jettySize=auto;html=1;entryX=0.5;entryY=0;entryDx=0;entryDy=0;" edge="1" parent="1" source="vDEONGkRwF2Hb5dZAq_u-5" target="vDEONGkRwF2Hb5dZAq_u-1">
          <mxGeometry relative="1" as="geometry" />
        </mxCell>
        <mxCell id="vDEONGkRwF2Hb5dZAq_u-5" value="&lt;div style=&quot;font-size: 12px&quot;&gt;&lt;font style=&quot;font-size: 12px&quot;&gt;program&lt;/font&gt;&lt;/div&gt;" style="rounded=0;whiteSpace=wrap;html=1;fontSize=10;" vertex="1" parent="1">
          <mxGeometry x="490" y="120" width="100" height="50" as="geometry" />
        </mxCell>
        <mxCell id="vDEONGkRwF2Hb5dZAq_u-81" value="" style="edgeStyle=orthogonalEdgeStyle;rounded=0;orthogonalLoop=1;jettySize=auto;html=1;" edge="1" parent="1" source="vDEONGkRwF2Hb5dZAq_u-6" target="vDEONGkRwF2Hb5dZAq_u-26">
          <mxGeometry relative="1" as="geometry" />
        </mxCell>
        <mxCell id="vDEONGkRwF2Hb5dZAq_u-6" value="&lt;font style=&quot;font-size: 10px&quot;&gt;timer_settime&lt;/font&gt;" style="rounded=0;whiteSpace=wrap;html=1;fontSize=12;" vertex="1" parent="1">
          <mxGeometry x="490" y="255" width="100" height="20" as="geometry" />
        </mxCell>
        <mxCell id="vDEONGkRwF2Hb5dZAq_u-9" value="bash shell" style="rounded=0;whiteSpace=wrap;html=1;" vertex="1" parent="1">
          <mxGeometry x="161" y="205" width="99" height="50" as="geometry" />
        </mxCell>
        <mxCell id="vDEONGkRwF2Hb5dZAq_u-10" value="" style="endArrow=none;dashed=1;html=1;dashPattern=1 3;strokeWidth=2;rounded=0;fontSize=12;entryX=0.5;entryY=1;entryDx=0;entryDy=0;startArrow=none;" edge="1" parent="1" target="vDEONGkRwF2Hb5dZAq_u-9">
          <mxGeometry width="50" height="50" relative="1" as="geometry">
            <mxPoint x="210" y="640" as="sourcePoint" />
            <mxPoint x="370" y="170" as="targetPoint" />
            <Array as="points" />
          </mxGeometry>
        </mxCell>
        <mxCell id="vDEONGkRwF2Hb5dZAq_u-11" value="t0" style="text;html=1;strokeColor=none;fillColor=none;align=center;verticalAlign=middle;whiteSpace=wrap;rounded=0;" vertex="1" parent="1">
          <mxGeometry x="60" y="120" width="60" height="30" as="geometry" />
        </mxCell>
        <mxCell id="vDEONGkRwF2Hb5dZAq_u-19" value="" style="triangle;whiteSpace=wrap;html=1;rotation=-90;" vertex="1" parent="1">
          <mxGeometry x="591.5" y="293.75" width="20" height="20" as="geometry" />
        </mxCell>
        <mxCell id="vDEONGkRwF2Hb5dZAq_u-20" value="tt" style="text;html=1;strokeColor=none;fillColor=none;align=center;verticalAlign=middle;whiteSpace=wrap;rounded=0;" vertex="1" parent="1">
          <mxGeometry x="601.5" y="298.75" width="30" height="15" as="geometry" />
        </mxCell>
        <mxCell id="vDEONGkRwF2Hb5dZAq_u-27" value="" style="strokeWidth=1;html=1;shape=mxgraph.flowchart.annotation_1;align=left;pointerEvents=1;rotation=-180;dashed=1;" vertex="1" parent="1">
          <mxGeometry x="220" y="260" width="50" height="207.5" as="geometry" />
        </mxCell>
        <mxCell id="vDEONGkRwF2Hb5dZAq_u-28" value="" style="triangle;whiteSpace=wrap;html=1;rotation=-90;" vertex="1" parent="1">
          <mxGeometry x="270" y="345" width="20" height="20" as="geometry" />
        </mxCell>
        <mxCell id="vDEONGkRwF2Hb5dZAq_u-29" value="ts" style="text;html=1;strokeColor=none;fillColor=none;align=center;verticalAlign=middle;whiteSpace=wrap;rounded=0;" vertex="1" parent="1">
          <mxGeometry x="280" y="350" width="30" height="15" as="geometry" />
        </mxCell>
        <mxCell id="vDEONGkRwF2Hb5dZAq_u-30" value="" style="strokeWidth=1;html=1;shape=mxgraph.flowchart.annotation_1;align=left;pointerEvents=1;rotation=-180;" vertex="1" parent="1">
          <mxGeometry x="562" y="280" width="13" height="47.5" as="geometry" />
        </mxCell>
        <mxCell id="vDEONGkRwF2Hb5dZAq_u-34" value="" style="triangle;whiteSpace=wrap;html=1;rotation=-90;" vertex="1" parent="1">
          <mxGeometry x="487.5" y="550" width="20" height="20" as="geometry" />
        </mxCell>
        <mxCell id="vDEONGkRwF2Hb5dZAq_u-35" value="tt" style="text;html=1;strokeColor=none;fillColor=none;align=center;verticalAlign=middle;whiteSpace=wrap;rounded=0;" vertex="1" parent="1">
          <mxGeometry x="497.5" y="555" width="30" height="15" as="geometry" />
        </mxCell>
        <mxCell id="vDEONGkRwF2Hb5dZAq_u-36" value="" style="triangle;whiteSpace=wrap;html=1;rotation=-90;" vertex="1" parent="1">
          <mxGeometry x="427.5" y="550" width="20" height="20" as="geometry" />
        </mxCell>
        <mxCell id="vDEONGkRwF2Hb5dZAq_u-37" value="ts" style="text;html=1;strokeColor=none;fillColor=none;align=center;verticalAlign=middle;whiteSpace=wrap;rounded=0;" vertex="1" parent="1">
          <mxGeometry x="437.5" y="555" width="30" height="15" as="geometry" />
        </mxCell>
        <mxCell id="vDEONGkRwF2Hb5dZAq_u-38" value="" style="triangle;whiteSpace=wrap;html=1;rotation=-90;" vertex="1" parent="1">
          <mxGeometry x="612.5" y="550" width="20" height="20" as="geometry" />
        </mxCell>
        <mxCell id="vDEONGkRwF2Hb5dZAq_u-39" value="tt" style="text;html=1;strokeColor=none;fillColor=none;align=center;verticalAlign=middle;whiteSpace=wrap;rounded=0;" vertex="1" parent="1">
          <mxGeometry x="622.5" y="555" width="30" height="15" as="geometry" />
        </mxCell>
        <mxCell id="vDEONGkRwF2Hb5dZAq_u-40" value="" style="triangle;whiteSpace=wrap;html=1;rotation=-90;" vertex="1" parent="1">
          <mxGeometry x="562.5" y="550" width="20" height="20" as="geometry" />
        </mxCell>
        <mxCell id="vDEONGkRwF2Hb5dZAq_u-42" value="ts" style="text;html=1;strokeColor=none;fillColor=none;align=center;verticalAlign=middle;whiteSpace=wrap;rounded=0;" vertex="1" parent="1">
          <mxGeometry x="572.5" y="555" width="30" height="15" as="geometry" />
        </mxCell>
        <mxCell id="vDEONGkRwF2Hb5dZAq_u-43" value="" style="html=1;verticalLabelPosition=bottom;labelBackgroundColor=#ffffff;verticalAlign=top;shadow=0;dashed=0;strokeWidth=2;shape=mxgraph.ios7.misc.more;strokeColor=#000000;fontSize=10;" vertex="1" parent="1">
          <mxGeometry x="467.5" y="555" width="10" height="10" as="geometry" />
        </mxCell>
        <mxCell id="vDEONGkRwF2Hb5dZAq_u-44" value="" style="html=1;verticalLabelPosition=bottom;labelBackgroundColor=#ffffff;verticalAlign=top;shadow=0;dashed=0;strokeWidth=2;shape=mxgraph.ios7.misc.more;strokeColor=#000000;fontSize=10;rotation=-180;" vertex="1" parent="1">
          <mxGeometry x="597.5" y="557.5" width="10" height="10" as="geometry" />
        </mxCell>
        <mxCell id="vDEONGkRwF2Hb5dZAq_u-26" value="" style="html=1;verticalLabelPosition=bottom;align=center;labelBackgroundColor=#ffffff;verticalAlign=top;strokeWidth=2;strokeColor=#0080F0;shadow=0;dashed=0;shape=mxgraph.ios7.icons.alarm_clock;" vertex="1" parent="1">
          <mxGeometry x="526.5" y="340" width="27" height="30" as="geometry" />
        </mxCell>
        <mxCell id="vDEONGkRwF2Hb5dZAq_u-82" value="" style="endArrow=none;dashed=1;html=1;dashPattern=1 3;strokeWidth=2;rounded=0;startArrow=classic;startFill=1;exitX=0.5;exitY=0;exitDx=0;exitDy=0;" edge="1" parent="1" source="vDEONGkRwF2Hb5dZAq_u-85" target="vDEONGkRwF2Hb5dZAq_u-26">
          <mxGeometry width="50" height="50" relative="1" as="geometry">
            <mxPoint x="494" y="354.5" as="sourcePoint" />
            <mxPoint x="424" y="354.5" as="targetPoint" />
          </mxGeometry>
        </mxCell>
        <mxCell id="vDEONGkRwF2Hb5dZAq_u-83" value="run" style="text;html=1;strokeColor=none;fillColor=none;align=center;verticalAlign=middle;whiteSpace=wrap;rounded=0;" vertex="1" parent="1">
          <mxGeometry x="585.5" y="350" width="60" height="30" as="geometry" />
        </mxCell>
        <mxCell id="vDEONGkRwF2Hb5dZAq_u-85" value="raise" style="rounded=0;whiteSpace=wrap;html=1;" vertex="1" parent="1">
          <mxGeometry x="420" y="395" width="80" height="25" as="geometry" />
        </mxCell>
        <mxCell id="vDEONGkRwF2Hb5dZAq_u-86" value="" style="endArrow=none;dashed=1;html=1;dashPattern=1 3;strokeWidth=2;rounded=0;startArrow=classic;startFill=1;entryX=1.204;entryY=0.533;entryDx=0;entryDy=0;entryPerimeter=0;exitX=0.5;exitY=0;exitDx=0;exitDy=0;" edge="1" parent="1" source="vDEONGkRwF2Hb5dZAq_u-87" target="vDEONGkRwF2Hb5dZAq_u-26">
          <mxGeometry width="50" height="50" relative="1" as="geometry">
            <mxPoint x="640" y="400" as="sourcePoint" />
            <mxPoint x="669.25" y="395.0002040816328" as="targetPoint" />
          </mxGeometry>
        </mxCell>
        <mxCell id="vDEONGkRwF2Hb5dZAq_u-87" value="kill" style="rounded=0;whiteSpace=wrap;html=1;" vertex="1" parent="1">
          <mxGeometry x="579.25" y="395" width="80.75" height="25" as="geometry" />
        </mxCell>
        <mxCell id="vDEONGkRwF2Hb5dZAq_u-90" value="run" style="text;html=1;strokeColor=none;fillColor=none;align=center;verticalAlign=middle;whiteSpace=wrap;rounded=0;" vertex="1" parent="1">
          <mxGeometry x="454" y="350" width="60" height="30" as="geometry" />
        </mxCell>
        <mxCell id="vDEONGkRwF2Hb5dZAq_u-93" value="" style="shape=curlyBracket;whiteSpace=wrap;html=1;rounded=1;flipH=1;strokeWidth=1;" vertex="1" parent="1">
          <mxGeometry x="670" y="390" width="10" height="30" as="geometry" />
        </mxCell>
        <mxCell id="vDEONGkRwF2Hb5dZAq_u-94" value="&lt;font style=&quot;font-size: 10px&quot;&gt;stop process&lt;/font&gt;" style="text;html=1;strokeColor=none;fillColor=none;align=center;verticalAlign=middle;whiteSpace=wrap;rounded=0;" vertex="1" parent="1">
          <mxGeometry x="680" y="390" width="70" height="30" as="geometry" />
        </mxCell>
        <mxCell id="vDEONGkRwF2Hb5dZAq_u-95" value="" style="shape=curlyBracket;whiteSpace=wrap;html=1;rounded=1;flipH=1;strokeWidth=1;rotation=-180;" vertex="1" parent="1">
          <mxGeometry x="392" y="390" width="10" height="30" as="geometry" />
        </mxCell>
        <mxCell id="vDEONGkRwF2Hb5dZAq_u-96" value="&lt;font style=&quot;font-size: 10px&quot;&gt;stop process&lt;/font&gt;" style="text;html=1;strokeColor=none;fillColor=none;align=center;verticalAlign=middle;whiteSpace=wrap;rounded=0;" vertex="1" parent="1">
          <mxGeometry x="322" y="390" width="70" height="30" as="geometry" />
        </mxCell>
        <mxCell id="vDEONGkRwF2Hb5dZAq_u-97" value="" style="endArrow=classic;html=1;rounded=0;strokeWidth=2;" edge="1" parent="1">
          <mxGeometry width="50" height="50" relative="1" as="geometry">
            <mxPoint x="539.5" y="425" as="sourcePoint" />
            <mxPoint x="539.5" y="545" as="targetPoint" />
          </mxGeometry>
        </mxCell>
        <mxCell id="vDEONGkRwF2Hb5dZAq_u-98" value="" style="endArrow=none;dashed=1;html=1;dashPattern=1 3;strokeWidth=2;rounded=0;startArrow=none;startFill=1;" edge="1" parent="1" source="vDEONGkRwF2Hb5dZAq_u-99">
          <mxGeometry width="50" height="50" relative="1" as="geometry">
            <mxPoint x="480" y="480" as="sourcePoint" />
            <mxPoint x="230" y="480" as="targetPoint" />
          </mxGeometry>
        </mxCell>
        <mxCell id="vDEONGkRwF2Hb5dZAq_u-99" value="SIGCONT" style="text;html=1;strokeColor=none;fillColor=none;align=center;verticalAlign=middle;whiteSpace=wrap;rounded=0;" vertex="1" parent="1">
          <mxGeometry x="310" y="467.5" width="60" height="30" as="geometry" />
        </mxCell>
        <mxCell id="vDEONGkRwF2Hb5dZAq_u-100" value="" style="endArrow=none;dashed=1;html=1;dashPattern=1 3;strokeWidth=2;rounded=0;startArrow=classicThin;startFill=1;" edge="1" parent="1" target="vDEONGkRwF2Hb5dZAq_u-99">
          <mxGeometry width="50" height="50" relative="1" as="geometry">
            <mxPoint x="480" y="480" as="sourcePoint" />
            <mxPoint x="230" y="480" as="targetPoint" />
          </mxGeometry>
        </mxCell>
        <mxCell id="vDEONGkRwF2Hb5dZAq_u-101" value="" style="triangle;whiteSpace=wrap;html=1;rotation=-90;" vertex="1" parent="1">
          <mxGeometry x="583" y="503.75" width="20" height="20" as="geometry" />
        </mxCell>
        <mxCell id="vDEONGkRwF2Hb5dZAq_u-102" value="tt" style="text;html=1;strokeColor=none;fillColor=none;align=center;verticalAlign=middle;whiteSpace=wrap;rounded=0;" vertex="1" parent="1">
          <mxGeometry x="593" y="508.75" width="30" height="15" as="geometry" />
        </mxCell>
        <mxCell id="vDEONGkRwF2Hb5dZAq_u-103" value="" style="strokeWidth=1;html=1;shape=mxgraph.flowchart.annotation_1;align=left;pointerEvents=1;rotation=-180;" vertex="1" parent="1">
          <mxGeometry x="553.5" y="490" width="13" height="47.5" as="geometry" />
        </mxCell>
        <mxCell id="vDEONGkRwF2Hb5dZAq_u-106" value="" style="endArrow=classic;html=1;rounded=0;strokeWidth=1;exitX=1;exitY=1;exitDx=0;exitDy=0;entryX=0.5;entryY=0;entryDx=0;entryDy=0;" edge="1" parent="1" source="vDEONGkRwF2Hb5dZAq_u-42" target="vDEONGkRwF2Hb5dZAq_u-87">
          <mxGeometry width="50" height="50" relative="1" as="geometry">
            <mxPoint x="600" y="600" as="sourcePoint" />
            <mxPoint x="700" y="340" as="targetPoint" />
            <Array as="points">
              <mxPoint x="603" y="600" />
              <mxPoint x="750" y="600" />
              <mxPoint x="750" y="360" />
              <mxPoint x="700" y="360" />
            </Array>
          </mxGeometry>
        </mxCell>
        <mxCell id="vDEONGkRwF2Hb5dZAq_u-107" value="" style="endArrow=classic;html=1;rounded=0;strokeWidth=1;entryX=0.5;entryY=0;entryDx=0;entryDy=0;" edge="1" parent="1" target="vDEONGkRwF2Hb5dZAq_u-85">
          <mxGeometry width="50" height="50" relative="1" as="geometry">
            <mxPoint x="473" y="570" as="sourcePoint" />
            <mxPoint x="440" y="360" as="targetPoint" />
            <Array as="points">
              <mxPoint x="473" y="600" />
              <mxPoint x="410" y="600" />
              <mxPoint x="410" y="360" />
              <mxPoint x="440" y="360" />
            </Array>
          </mxGeometry>
        </mxCell>
      </root>
    </mxGraphModel>
  </diagram>
</mxfile>
